<?xml version="1.0" encoding="iso-8859-1"?>
<!-- Uploaded to: SVG Repo, www.svgrepo.com, Generator: SVG Repo Mixer Tools -->
<svg height="800px" width="800px" version="1.1" id="Layer_1" xmlns="http://www.w3.org/2000/svg" xmlns:xlink="http://www.w3.org/1999/xlink" 
	 viewBox="0 0 511.998 511.998" xml:space="preserve">
<path style="fill:#FFDA79;" d="M249.679,457.109c-22.184,0-43.392-5.045-63.033-14.996c-6.071-3.076-9.894-9.304-9.891-16.11
	c0.004-6.805,3.837-13.03,9.91-16.098c35.191-17.776,57.053-53.296,57.053-92.698c0-27.095-9.876-73.365-24.576-115.135
	c-1.826-5.19-1.185-10.928,1.739-15.586c2.926-4.658,7.815-7.73,13.282-8.34c5.069-0.567,10.288-0.853,15.514-0.853
	c38.733,0,102.205,15.253,154.349,37.092c49.256,20.629,107.97,55.215,107.97,102.822c0,47.6-58.715,82.181-107.97,102.809
	C351.883,441.856,288.411,457.109,249.679,457.109z"/>
<path style="fill:#FFC72D;" d="M431.302,335.248c-4.331,0-8.673-1.548-12.131-4.691c-4.53-4.116-22.669-18.801-65.921-34.961
	c-9.336-3.489-14.078-13.885-10.59-23.223c3.49-9.337,13.884-14.075,23.223-10.589c46.217,17.267,68.433,33.763,77.563,42.061
	c7.376,6.703,7.923,18.117,1.219,25.493C441.103,333.256,436.211,335.248,431.302,335.248z"/>
<path style="fill:#FFEDBE;" d="M139.9,457.109C62.758,457.109,0,394.35,0,317.208c0-38.732,15.253-102.202,37.091-154.35
	C57.72,113.602,92.3,54.889,139.9,54.889c57.137,0,95.505,84.706,113.29,135.198c16.173,45.962,26.624,95.857,26.624,127.121
	c0,53.098-29.456,100.963-76.874,124.914C183.303,452.064,162.088,457.109,139.9,457.109z"/>
<g>
	<path style="fill:#FFC72D;" d="M101.392,225.369c-2.099,0-4.233-0.369-6.314-1.145c-9.336-3.489-14.078-13.885-10.589-23.223
		c17.268-46.219,33.764-68.435,42.061-77.563c6.703-7.375,18.117-7.92,25.493-1.218c7.376,6.704,7.92,18.118,1.218,25.493
		c-4.116,4.529-18.801,22.664-34.961,65.919C115.588,220.89,108.706,225.369,101.392,225.369z"/>
	<path style="fill:#FFC72D;" d="M76.162,335.249c-9.967,0-18.047-8.08-18.047-18.047c0-10.757,1.824-25.523,5.273-42.699
		c1.962-9.771,11.467-16.103,21.246-14.14c9.772,1.962,16.104,11.474,14.14,21.246c-2.902,14.451-4.566,27.423-4.566,35.593
		C94.209,327.17,86.129,335.249,76.162,335.249z"/>
</g>
</svg>