<?xml version="1.0" encoding="iso-8859-1"?>
<!-- Uploaded to: SVG Repo, www.svgrepo.com, Generator: SVG Repo Mixer Tools -->
<svg height="800px" width="800px" version="1.1" id="Layer_1" xmlns="http://www.w3.org/2000/svg" xmlns:xlink="http://www.w3.org/1999/xlink" 
	 viewBox="0 0 511.997 511.997" xml:space="preserve">
<path style="fill:#3CC247;" d="M335.12,297.129c12.973,1.495,24.765,5.826,48.364,8.17c6.368-6.79,12.366-14.07,17.936-21.841
	c27.513-38.383,40.452-82.794,39.921-126.652c-0.082-6.69-6.687-11.423-13.05-9.351c-21.826,7.11-42.609,17.765-61.407,31.806
	c0.558,20.843-1.944,42.119-7.859,63.249C353.503,262.238,345.37,280.529,335.12,297.129z"/>
<path style="fill:#7C54B8;" d="M260.28,315.706c5.667-0.578,11.241-2.284,16.347-5.159c16.067-9.046,30.018-12.343,40.797-13.471
	c6.727-0.704,12.315-0.567,17.697,0.054c10.248-16.601,18.38-34.892,23.904-54.618c12.731-45.476,9.707-91.635-5.787-132.668
	c-2.364-6.261-10.192-8.447-15.463-4.324c-13.376,10.466-25.552,22.561-36.192,36.091c2.476,12.998,3.785,26.411,3.785,40.131
	c0,49.719-17.029,95.451-45.553,131.717C259.959,314.212,260.128,314.956,260.28,315.706z"/>
<path style="fill:#FD4DD7;" d="M257.879,315.884c29.688-36.641,47.489-83.308,47.489-134.142c0-47.225-15.356-90.859-41.341-126.196
	c-3.962-5.389-12.087-5.389-16.05,0c-25.985,35.337-41.341,78.971-41.341,126.196c0,50.834,17.801,97.501,47.49,134.142
	C255.377,315.94,256.629,315.94,257.879,315.884z"/>
<path style="fill:#7C54B8;" d="M176.863,297.129c5.382-0.621,10.97-0.757,17.697-0.054c10.779,1.127,24.732,4.424,40.799,13.471
	c5.106,2.875,10.68,4.581,16.347,5.159c0.153-0.749,0.321-1.494,0.466-2.246c-28.524-36.266-45.553-81.999-45.553-131.717
	c0-13.72,1.309-27.133,3.785-40.131c-10.641-13.53-22.816-25.625-36.192-36.091c-5.271-4.123-13.098-1.936-15.463,4.324
	c-15.496,41.033-18.519,87.191-5.787,132.668C158.483,262.238,166.614,280.527,176.863,297.129z"/>
<path style="fill:#3CC247;" d="M128.5,305.298c23.6-2.343,35.391-6.674,48.364-8.17c-10.25-16.6-18.383-34.89-23.905-54.618
	c-5.916-21.131-8.417-42.407-7.859-63.249c-18.799-14.041-39.582-24.697-61.407-31.806c-6.362-2.072-12.968,2.66-13.05,9.351
	c-0.532,43.858,12.407,88.269,39.92,126.652C116.133,291.228,122.132,298.51,128.5,305.298z"/>
<path style="fill:#2DA85F;" d="M110.564,283.458c5.57,7.771,11.569,15.052,17.936,21.841c23.6-2.343,35.391-6.674,48.364-8.17
	c-6.741-10.918-12.544-22.581-17.314-34.888c-10.55,2.239-23.493,4.875-43.976,6c-5.204,0.286-10.001,0.546-14.544,0.72
	C103.988,273.878,107.163,278.715,110.564,283.458z"/>
<path style="fill:#674799;" d="M251.705,315.706c0.153-0.749,0.321-1.494,0.466-2.246c-11.125-14.144-20.49-29.733-27.79-46.432
	c-11.478-4.998-21.58-7.139-29.821-8.001c-13.775-1.44-22.785,0.62-35.009,3.215c4.769,12.307,10.572,23.969,17.311,34.888
	c5.382-0.621,10.97-0.757,17.697-0.054c10.779,1.127,24.732,4.424,40.799,13.471C240.464,313.421,246.038,315.128,251.705,315.706z"
	/>
<path style="fill:#E846AA;" d="M287.615,265.707c-3.536,1.54-7.199,3.341-10.984,5.472c-12.784,7.198-28.491,7.198-41.275,0
	c-3.777-2.126-7.431-3.924-10.961-5.462c7.719,17.657,17.757,34.07,29.731,48.851c1.251,0.055,2.503,0.055,3.753,0
	C269.856,299.785,279.895,283.368,287.615,265.707z"/>
<path style="fill:#674799;" d="M317.425,297.076c6.727-0.704,12.315-0.567,17.697,0.054c6.74-10.918,12.543-22.581,17.311-34.888
	c-12.224-2.595-21.233-4.655-35.009-3.215c-8.241,0.862-18.342,3.003-29.821,8.001c-7.3,16.699-16.666,32.288-27.79,46.432
	c0.145,0.752,0.313,1.497,0.466,2.246c5.667-0.578,11.241-2.284,16.347-5.159C292.695,301.501,306.646,298.203,317.425,297.076z"/>
<path style="fill:#2DA85F;" d="M401.422,283.458c3.4-4.743,6.576-9.58,9.534-14.495c-4.543-0.175-9.34-0.434-14.544-0.72
	c-20.484-1.127-33.427-3.762-43.976-6c-4.769,12.307-10.572,23.969-17.314,34.888c12.973,1.495,24.765,5.826,48.364,8.17
	C389.852,298.51,395.851,291.228,401.422,283.458z"/>
<path style="fill:#FFDB6C;" d="M511.875,296.391c1.572-13.191-13.572-21.821-24.184-13.832
	c-9.199,6.927-20.569,13.422-34.235,17.587c-18.477,5.632-33.874,4.785-57.045,3.511c-44.219-2.431-53.32-11.899-78.985-9.215
	c-10.778,1.127-24.729,4.424-40.795,13.47c-12.784,7.197-28.491,7.197-41.275,0c-16.066-9.045-30.017-12.341-40.795-13.47
	c-25.665-2.684-34.767,6.784-78.985,9.215c-23.172,1.274-38.569,2.121-57.045-3.511c-13.666-4.165-25.034-10.66-34.235-17.587
	c-10.612-7.991-25.756,0.64-24.184,13.832c0.018,0.155,0.038,0.311,0.058,0.465c1.958,15.331,3.024,66.462,40.809,110.579
	c10.88,12.703,36.366,42.46,77.998,50.682c49.791,9.834,102.306-13.772,111.896-22.379c1.336-1.199,8.245-7.852,16.78-8.886
	c1.116-0.136,4.364-0.429,8.386-0.433c4.015-0.004,7.33,0.282,8.563,0.433c8.449,1.041,15.147,7.639,16.513,8.886
	c9.528,8.686,61.877,32.259,111.896,22.379c41.632-8.222,67.118-37.979,77.998-50.682c37.785-44.117,38.852-95.248,40.809-110.579
	C511.837,296.702,511.856,296.547,511.875,296.391z M225.622,379.576l-16.776,11.383c-37.168,25.22-87.743,15.534-112.962-21.634
	l0,0l16.776-11.383C149.827,332.722,200.403,342.408,225.622,379.576L225.622,379.576z M420.214,369.325
	c-25.22,37.168-75.794,46.854-112.962,21.634l-16.776-11.383l0,0c25.22-37.168,75.794-46.854,112.962-21.634L420.214,369.325
	L420.214,369.325z"/>
<g>
	<path style="fill:#FFB966;" d="M487.7,282.56c-4.902,3.691-10.441,7.247-16.595,10.405c0.112,1.101,0.111,2.243-0.03,3.425
		c-0.018,0.155-0.037,0.311-0.057,0.466c-1.958,15.331-3.024,66.462-40.809,110.579c-10.88,12.703-36.366,42.46-77.998,50.682
		c-1.809,0.357-3.619,0.658-5.432,0.931c14.72,1.976,30.594,2.16,46.241-0.931c41.632-8.222,67.118-37.979,77.998-50.682
		c37.785-44.117,38.852-95.248,40.809-110.579c0.02-0.154,0.039-0.309,0.057-0.466C513.456,283.2,498.312,274.569,487.7,282.56z"/>
	<path style="fill:#FFB966;" d="M223.801,426.853c-1.235-0.153-4.548-0.438-8.563-0.433c-4.02,0.004-7.269,0.298-8.386,0.433
		c-8.536,1.033-15.444,7.687-16.78,8.886c-6.595,5.919-33.488,18.93-65.837,23.284c48.174,7.282,97.393-14.978,106.646-23.284
		c0.596-0.534,2.304-2.154,4.764-3.874C232.646,429.725,228.495,427.432,223.801,426.853z"/>
</g>
</svg>