<?xml version="1.0" encoding="iso-8859-1"?>
<!-- Uploaded to: SVG Repo, www.svgrepo.com, Generator: SVG Repo Mixer Tools -->
<svg height="800px" width="800px" version="1.1" id="Layer_1" xmlns="http://www.w3.org/2000/svg" xmlns:xlink="http://www.w3.org/1999/xlink" 
	 viewBox="0 0 503.82 503.82" xml:space="preserve">
<g transform="translate(1 1)">
	<g>
		<path style="fill:#FFE100;" d="M400.313,451.62c4.197-4.197,10.072-6.715,16.787-7.554l-57.075-56.236l-23.502,23.502
			l57.075,57.075C393.599,462.532,396.117,456.656,400.313,451.62"/>
		<path style="fill:#FFE100;" d="M101.507,451.62c-4.197-4.197-10.072-6.715-16.787-7.554l57.075-57.075l23.502,23.502
			l-57.075,57.915C108.222,462.532,105.704,456.656,101.507,451.62"/>
	</g>
	<g>
		<path style="fill:#00DA6C;" d="M348.274,398.742C348.274,399.581,348.274,399.581,348.274,398.742
			c-14.269,14.269-31.895,23.502-51.2,26.859c-10.911,1.679-20.984-5.875-20.144-16.787l0,0c0-7.554,5.875-14.269,13.43-15.948
			c12.59-2.518,24.341-8.393,33.574-17.626c10.072-10.072,15.948-21.823,18.466-35.252c1.679-7.554,8.393-13.43,15.948-13.43l0,0
			c10.072,0,18.466,9.233,16.787,19.305C372.615,366.007,362.543,384.473,348.274,398.742"/>
		<path style="fill:#00DA6C;" d="M436.405,451.62c10.072,10.072,10.072,26.02,0,35.252c-10.072,10.072-26.02,10.072-35.252,0
			c-10.072-10.072-10.072-26.02,0-35.252C410.386,441.548,426.333,441.548,436.405,451.62"/>
		<path style="fill:#00DA6C;" d="M153.546,398.742C153.546,399.581,153.546,399.581,153.546,398.742
			c14.269,14.269,31.895,23.502,51.2,26.859c10.911,1.679,20.984-5.875,20.144-16.787l0,0c0-7.554-5.875-14.269-13.43-15.948
			c-12.59-2.518-24.341-8.393-33.574-17.626c-10.072-10.072-15.948-21.823-18.466-35.252c-1.679-7.554-8.393-13.43-15.948-13.43l0,0
			c-10.072,0-18.466,9.233-16.787,19.305C129.205,366.007,139.277,384.473,153.546,398.742"/>
		<path style="fill:#00DA6C;" d="M65.415,451.62c-10.072,10.072-10.072,26.02,0,35.252c10.072,10.072,26.02,10.072,35.252,0
			c10.072-10.072,10.072-26.02,0-35.252C91.435,441.548,75.487,441.548,65.415,451.62"/>
	</g>
	<g>
		<path style="fill:#FFE100;" d="M191.317,386.152c-5.036-2.518-10.072-5.875-14.269-10.072s-7.554-8.393-10.072-13.43
			l99.043-99.043c83.095-83.095,112.472-160.315,112.472-160.315C438.923,87.345,485.927,7.607,485.927,7.607
			s4.197,76.38-25.18,142.689c-4.197,9.233-41.967,8.393-41.967,8.393s10.911,31.056,8.393,33.574
			c-5.036,5.875-84.774,89.81-127.58,113.311c-10.072,5.036-20.144,10.911-29.377,17.626
			C250.91,335.791,221.533,357.614,191.317,386.152"/>
		<path style="fill:#FFE100;" d="M215.658,313.129l35.252-35.252l-15.108-15.108C152.707,179.673,123.33,102.453,123.33,102.453
			C62.897,87.345,15.894,7.607,15.894,7.607s-4.197,76.38,25.18,142.689c4.197,9.233,41.967,8.393,41.967,8.393
			s-10.911,31.056-8.393,33.574c5.036,5.875,84.774,89.81,127.58,113.311C207.264,308.093,211.461,310.611,215.658,313.129"/>
		<path style="fill:#FFE100;" d="M270.215,323.201c-5.875,4.197-11.751,8.393-19.305,13.43c17.626,12.59,38.61,29.377,59.593,49.521
			c5.036-2.518,10.072-5.875,14.269-10.072s7.554-8.393,10.072-13.43l-48.682-48.682
			C280.287,316.486,275.251,319.843,270.215,323.201"/>
	</g>
	<path d="M293.717,434.834c-5.875,0-11.751-2.518-16.787-5.875c-5.875-5.036-9.233-12.59-8.393-20.144
		c0-11.751,9.233-21.823,20.144-23.502c10.911-1.679,20.984-7.554,29.377-15.108c8.393-8.393,14.269-19.305,15.948-31.056
		c1.679-11.751,12.59-20.144,24.341-20.144c7.554,0,15.108,3.357,20.144,9.233c5.036,5.875,6.715,13.43,5.875,20.144
		c-4.197,21.823-14.269,41.128-30.216,57.075l0,0l0,0c-15.108,15.108-34.413,25.18-55.397,29.377
		C297.074,434.834,295.395,434.834,293.717,434.834z M359.186,335.791L359.186,335.791c-4.197,0-7.554,2.518-8.393,6.715
		c-2.518,14.269-10.072,28.538-20.984,39.449s-24.341,17.626-38.61,20.144c-3.357,0.839-6.715,4.197-6.715,7.554
		s1.679,5.875,2.518,6.715c1.679,1.679,5.036,2.518,7.554,1.679c17.626-3.357,33.574-11.751,46.164-24.341l6.715,5.875l-5.875-5.875
		c12.59-12.59,21.823-30.216,25.18-47.843c0.839-3.357-0.839-5.036-1.679-6.715C364.222,336.63,361.704,335.791,359.186,335.791z"/>
	<path d="M418.779,502.82c-8.393,0-16.787-3.357-23.502-10.072c-13.43-13.43-13.43-34.413,0-47.843
		c13.429-13.43,34.413-13.43,47.843,0c13.429,13.429,13.429,34.413,0,47.843C435.566,499.463,427.172,502.82,418.779,502.82z
		 M418.779,452.46c-4.197,0-8.393,1.679-11.751,5.036c-6.715,6.715-6.715,16.787,0,23.502c6.715,6.715,17.626,6.715,23.502,0
		c6.715-6.715,6.715-16.787,0-23.502C427.172,454.138,422.976,452.46,418.779,452.46z"/>
	<path d="M393.599,476.801c-2.518,0-4.197-0.839-5.875-2.518l-57.075-57.075c-3.357-3.357-3.357-8.393,0-11.751l23.502-23.502
		c3.357-3.357,8.393-3.357,11.751,0l57.075,57.075c2.518,2.518,3.357,5.875,1.679,9.233c-0.839,3.357-4.197,5.036-7.554,5.036
		s-7.554,0.839-10.911,5.036c-3.357,3.357-5.036,8.393-5.036,10.911c0,3.357-2.518,5.875-5.036,7.554
		C395.277,476.801,394.438,476.801,393.599,476.801z M348.274,411.332l41.128,41.128c1.679-2.518,3.357-5.036,5.036-6.715
		c1.679-1.679,4.197-3.357,6.715-5.036l-41.128-41.128L348.274,411.332z"/>
	<path d="M208.104,434.834c-1.679,0-3.357,0-5.036-0.839c-20.984-4.197-40.289-14.269-55.397-28.538l-0.839-0.839
		c-15.948-15.948-26.02-35.252-30.216-57.075c-1.679-7.554,0.839-14.269,5.875-20.144c5.036-5.875,12.59-9.233,20.144-9.233
		c11.751,0,21.823,8.393,24.341,20.144c1.679,10.911,7.554,21.823,15.948,31.056c8.393,8.393,18.466,13.43,29.377,15.108
		c11.751,1.679,20.144,11.751,20.144,23.502c0,7.554-3.357,15.108-8.393,20.144C219.854,433.155,213.979,434.834,208.104,434.834z
		 M159.422,393.706c12.59,12.59,28.538,20.984,46.164,24.341c2.518,0.839,5.036,0,7.554-1.679c0.839-0.839,3.357-3.357,2.518-6.715
		c0-4.197-2.518-7.554-6.715-7.554c-14.269-2.518-27.698-9.233-38.61-20.144c-10.911-10.911-18.466-25.18-20.984-39.449
		c-0.839-3.357-4.197-6.715-7.554-6.715c-2.518,0-5.036,0.839-6.715,3.357c-0.839,0.839-2.518,3.357-1.679,6.715
		C137.599,362.65,145.992,380.276,159.422,393.706C159.422,392.866,159.422,392.866,159.422,393.706l-6.715,5.875L159.422,393.706z"
		/>
	<path d="M83.041,502.82c-8.393,0-16.787-3.357-23.502-10.072c-13.43-13.43-13.43-34.413,0-47.843l0,0
		c13.43-13.43,34.413-13.43,47.843,0c13.43,13.429,13.43,34.413,0,47.843C100.668,499.463,92.274,502.82,83.041,502.82z
		 M71.291,457.496c-6.715,6.715-6.715,16.787,0,23.502c6.715,6.715,16.787,6.715,23.502,0c6.715-6.715,6.715-16.787,0-23.502
		C88.917,450.781,78.005,450.781,71.291,457.496L71.291,457.496z"/>
	<path d="M191.317,394.545c-1.679,0-2.518,0-4.197-0.839c-5.875-3.357-10.911-7.554-15.948-11.751
		c-4.197-4.197-8.393-9.233-11.751-15.108c-1.679-3.357-1.679-7.554,0.839-10.072l99.043-99.043
		c82.256-82.256,111.633-157.797,111.633-157.797c0.839-2.518,3.357-4.197,5.875-5.036C433.048,79.791,478.372,4.25,478.372,3.411
		c1.679-3.357,5.875-5.036,9.233-4.197c4.197,0.839,6.715,4.197,6.715,7.554s4.197,78.898-26.02,146.885
		c-3.357,7.554-15.948,12.59-37.771,13.43c8.393,25.18,5.875,27.698,3.357,31.056c-5.036,5.875-84.774,90.649-130.098,115.83
		c-8.393,5.036-19.305,10.072-28.538,16.787c-19.305,13.43-48.682,34.413-78.059,62.111
		C195.513,393.706,192.995,394.545,191.317,394.545z M177.887,363.489c1.679,2.518,3.357,4.197,5.875,6.715
		c1.679,1.679,4.197,4.197,6.715,5.875c28.538-26.02,56.236-46.164,75.541-59.593c10.072-6.715,20.984-12.59,30.216-17.626
		c38.61-20.984,110.793-95.685,123.384-109.954c-0.839-5.036-4.197-17.626-8.393-27.698c-0.839-2.518-0.839-5.036,0.839-7.554
		c1.679-2.518,4.197-3.357,6.715-3.357c14.269,0,31.056-1.679,34.413-4.197c17.626-39.449,22.662-83.934,23.502-110.793
		c-18.466,25.18-52.039,62.111-92.328,74.702c-7.554,16.787-38.61,84.774-113.311,159.475L177.887,363.489z M420.458,187.227
		L420.458,187.227L420.458,187.227z"/>
	<path d="M108.222,476.801c-0.839,0-1.679,0-3.357-0.839c-3.357-0.839-5.036-4.197-5.036-7.554s-0.839-7.554-5.036-10.911l0,0
		c-3.357-3.357-8.393-5.036-10.911-5.036c-3.357,0-5.875-2.518-7.554-5.036c-0.839-3.357-0.839-6.715,1.679-9.233l57.075-57.075
		c3.357-3.357,8.393-3.357,11.751,0l23.502,23.502c3.357,3.357,3.357,8.393,0,11.751l-57.075,57.075
		C112.418,475.961,110.74,476.801,108.222,476.801z M107.382,445.745c1.679,1.679,3.357,4.197,5.036,6.715l41.128-41.128
		l-11.751-11.751l-41.128,41.128C103.186,442.388,104.864,444.066,107.382,445.745L107.382,445.745z"/>
	<path d="M215.658,321.522c-1.679,0-2.518,0-4.197-0.839c-4.197-2.518-8.393-5.036-13.43-7.554
		C152.707,288.788,72.13,203.175,67.933,197.299c-2.518-2.518-4.197-5.036,3.357-30.216c-21.823-0.839-34.413-5.036-37.77-13.43
		C3.304,86.506,7.5,10.125,7.5,6.768s2.518-6.715,6.715-7.554c3.357-0.839,7.554,0.839,9.233,4.197
		c0,0.839,45.325,76.38,101.561,90.649c2.518,0.839,5.036,2.518,5.875,5.036c0,0.839,30.216,76.38,110.793,156.957l15.108,15.108
		c1.679,1.679,2.518,3.357,2.518,5.875s-0.839,4.197-2.518,5.875l-35.252,35.252C219.854,320.683,218.176,321.522,215.658,321.522z
		 M83.041,188.906c12.59,14.269,84.774,88.131,123.384,109.954c2.518,1.679,5.036,3.357,8.393,4.197l24.341-24.341l-9.233-9.233
		c-73.862-73.862-105.757-141.849-113.311-159.475c-40.289-12.59-73.862-50.361-92.328-74.702
		c1.679,27.698,6.715,71.344,23.502,110.793c4.197,2.518,20.144,4.197,35.252,4.197c2.518,0,5.036,1.679,6.715,3.357
		c1.679,2.518,1.679,5.036,0.839,7.554C87.238,171.279,83.881,183.87,83.041,188.906z M81.363,187.227L81.363,187.227
		L81.363,187.227z"/>
	<path d="M310.504,394.545c-1.679,0-4.197-0.839-5.875-2.518c-17.626-16.787-37.771-32.734-58.754-48.682
		c-2.518-1.679-3.357-4.197-3.357-6.715s1.679-5.036,3.357-6.715c7.554-5.036,14.269-10.072,19.305-14.269
		c5.036-3.357,10.072-6.715,15.948-10.072c3.357-1.679,7.554-1.679,10.072,1.679l48.682,48.682
		c2.518,2.518,3.357,6.715,1.679,10.072c-3.357,5.875-7.554,10.911-11.751,15.108c-4.197,4.197-10.072,8.393-15.948,11.751
		C313.861,393.706,312.182,394.545,310.504,394.545z M265.179,336.63c16.787,12.59,31.895,25.18,46.164,38.61
		c2.518-1.679,5.036-3.357,6.715-5.875c1.679-1.679,3.357-4.197,5.036-6.715l-38.61-38.61c-3.357,2.518-6.715,4.197-10.072,5.875
		l0,0C271.894,332.434,268.536,334.112,265.179,336.63z M270.215,323.201L270.215,323.201L270.215,323.201z"/>
</g>
</svg>